<svg width="32" height="32" viewBox="0 0 32 32" fill="none" xmlns="http://www.w3.org/2000/svg">
  <rect width="32" height="32" rx="8" fill="url(#gradient)"/>
  <path d="M8 12C8 10.8954 8.89543 10 10 10H14C15.1046 10 16 10.8954 16 12V20C16 21.1046 15.1046 22 14 22H10C8.89543 22 8 21.1046 8 20V12Z" fill="white"/>
  <path d="M18 14C18 13.4477 18.4477 13 19 13H21C21.5523 13 22 13.4477 22 14V18C22 18.5523 21.5523 19 21 19H19C18.4477 19 18 18.5523 18 18V14Z" fill="white"/>
  <circle cx="24" cy="8" r="3" fill="#FFD700"/>
  <defs>
    <linearGradient id="gradient" x1="0" y1="0" x2="32" y2="32" gradientUnits="userSpaceOnUse">
      <stop stop-color="#EC4899"/>
      <stop offset="0.5" stop-color="#8B5CF6"/>
      <stop offset="1" stop-color="#F59E0B"/>
    </linearGradient>
  </defs>
</svg>